<svg width="16" height="16" viewBox="0 0 16 16" fill="none" xmlns="http://www.w3.org/2000/svg">
<g id="oui:arrow-down">
<path id="Vector" d="M13.0691 5.15722L8.38405 9.76822C8.28183 9.86935 8.14384 9.92607 8.00005 9.92607C7.85626 9.92607 7.71827 9.86935 7.61605 9.76822L2.93005 5.15822C2.8272 5.05715 2.68876 5.00051 2.54455 5.00051C2.40034 5.00051 2.26191 5.05715 2.15905 5.15822C2.1084 5.2076 2.06815 5.26662 2.04067 5.33179C2.01318 5.39697 1.99902 5.46699 1.99902 5.53772C1.99902 5.60846 2.01318 5.67848 2.04067 5.74365C2.06815 5.80883 2.1084 5.86785 2.15905 5.91722L6.84305 10.5272C7.15157 10.8302 7.56667 10.9999 7.99905 10.9999C8.43143 10.9999 8.84653 10.8302 9.15505 10.5272L13.8391 5.91722C13.8899 5.86783 13.9302 5.80875 13.9578 5.74348C13.9854 5.67822 13.9996 5.60808 13.9996 5.53722C13.9996 5.46637 13.9854 5.39623 13.9578 5.33096C13.9302 5.26569 13.8899 5.20662 13.8391 5.15722C13.7362 5.05615 13.5978 4.99951 13.4536 4.99951C13.3093 4.99951 13.1709 5.05615 13.0681 5.15722" fill="#0A1F44"/>
</g>
</svg>
